  0
SECTION
  2
BLOCKS
  0
ENDSEC
  0
SECTION
  2
ENTITIES
  0
LINE
  8
0
 10
10.6096
 20
32.6529
 11
6.43341
 21
33.7252
  0
LINE
  8
0
 10
6.43341
 20
33.7252
 11
2.15581
 21
34.2656
  0
LINE
  8
0
 10
2.15581
 20
34.2656
 11
-2.15581
 21
34.2656
  0
LINE
  8
0
 10
-2.15581
 20
34.2656
 11
-6.43341
 21
33.7252
  0
LINE
  8
0
 10
-6.43341
 20
33.7252
 11
-10.6096
 21
32.6529
  0
LINE
  8
0
 10
-10.6096
 20
32.6529
 11
-14.6184
 21
31.0657
  0
LINE
  8
0
 10
-14.6184
 20
31.0657
 11
-18.3967
 21
28.9886
  0
LINE
  8
0
 10
-18.3967
 20
28.9886
 11
-21.8849
 21
26.4543
  0
LINE
  8
0
 10
-21.8849
 20
26.4543
 11
-25.0279
 21
23.5028
  0
LINE
  8
0
 10
-25.0279
 20
23.5028
 11
-27.7762
 21
20.1806
  0
LINE
  8
0
 10
-27.7762
 20
20.1806
 11
-30.0865
 21
16.5402
  0
LINE
  8
0
 10
-30.0865
 20
16.5402
 11
-31.9223
 21
12.6389
  0
LINE
  8
0
 10
-31.9223
 20
12.6389
 11
-33.2547
 21
8.53835
  0
LINE
  8
0
 10
-33.2547
 20
8.53835
 11
-34.0626
 21
4.3031
  0
LINE
  8
0
 10
-34.0626
 20
4.3031
 11
-34.3333
 21
0
  0
LINE
  8
0
 10
-34.3333
 20
0
 11
-34.0626
 21
-4.3031
  0
LINE
  8
0
 10
-34.0626
 20
-4.3031
 11
-33.2547
 21
-8.53835
  0
LINE
  8
0
 10
-33.2547
 20
-8.53835
 11
-31.9223
 21
-12.6389
  0
LINE
  8
0
 10
-31.9223
 20
-12.6389
 11
-30.0865
 21
-16.5402
  0
LINE
  8
0
 10
-30.0865
 20
-16.5402
 11
-27.7762
 21
-20.1806
  0
LINE
  8
0
 10
-27.7762
 20
-20.1806
 11
-25.0279
 21
-23.5028
  0
LINE
  8
0
 10
-25.0279
 20
-23.5028
 11
-21.8849
 21
-26.4543
  0
LINE
  8
0
 10
-21.8849
 20
-26.4543
 11
-18.3967
 21
-28.9886
  0
LINE
  8
0
 10
-18.3967
 20
-28.9886
 11
-14.6184
 21
-31.0657
  0
LINE
  8
0
 10
-14.6184
 20
-31.0657
 11
-10.6096
 21
-32.6529
  0
LINE
  8
0
 10
-10.6096
 20
-32.6529
 11
-6.43341
 21
-33.7252
  0
LINE
  8
0
 10
-6.43341
 20
-33.7252
 11
-2.15581
 21
-34.2656
  0
LINE
  8
0
 10
-2.15581
 20
-34.2656
 11
2.15581
 21
-34.2656
  0
LINE
  8
0
 10
2.15581
 20
-34.2656
 11
6.43341
 21
-33.7252
  0
LINE
  8
0
 10
6.43341
 20
-33.7252
 11
10.6096
 21
-32.6529
  0
LINE
  8
0
 10
10.6096
 20
-32.6529
 11
14.6184
 21
-31.0657
  0
LINE
  8
0
 10
14.6184
 20
-31.0657
 11
18.3967
 21
-28.9886
  0
LINE
  8
0
 10
18.3967
 20
-28.9886
 11
21.8849
 21
-26.4543
  0
LINE
  8
0
 10
21.8849
 20
-26.4543
 11
25.0279
 21
-23.5028
  0
LINE
  8
0
 10
25.0279
 20
-23.5028
 11
27.7762
 21
-20.1806
  0
LINE
  8
0
 10
27.7762
 20
-20.1806
 11
30.0865
 21
-16.5402
  0
LINE
  8
0
 10
30.0865
 20
-16.5402
 11
31.9223
 21
-12.6389
  0
LINE
  8
0
 10
31.9223
 20
-12.6389
 11
33.2547
 21
-8.53835
  0
LINE
  8
0
 10
33.2547
 20
-8.53835
 11
34.0626
 21
-4.3031
  0
LINE
  8
0
 10
34.0626
 20
-4.3031
 11
34.3333
 21
0
  0
LINE
  8
0
 10
34.3333
 20
0
 11
34.0626
 21
4.3031
  0
LINE
  8
0
 10
34.0626
 20
4.3031
 11
33.2547
 21
8.53835
  0
LINE
  8
0
 10
33.2547
 20
8.53835
 11
31.9223
 21
12.6389
  0
LINE
  8
0
 10
31.9223
 20
12.6389
 11
30.0865
 21
16.5402
  0
LINE
  8
0
 10
30.0865
 20
16.5402
 11
27.7762
 21
20.1806
  0
LINE
  8
0
 10
27.7762
 20
20.1806
 11
25.0279
 21
23.5028
  0
LINE
  8
0
 10
25.0279
 20
23.5028
 11
21.8849
 21
26.4543
  0
LINE
  8
0
 10
21.8849
 20
26.4543
 11
18.3967
 21
28.9886
  0
LINE
  8
0
 10
18.3967
 20
28.9886
 11
14.6184
 21
31.0657
  0
LINE
  8
0
 10
14.6184
 20
31.0657
 11
10.6096
 21
32.6529
  0
LINE
  8
0
 10
14.1642
 20
30.1006
 11
17.8252
 21
28.088
  0
LINE
  8
0
 10
17.8252
 20
28.088
 11
21.205
 21
25.6324
  0
LINE
  8
0
 10
21.205
 20
25.6324
 11
24.2504
 21
22.7726
  0
LINE
  8
0
 10
24.2504
 20
22.7726
 11
26.9133
 21
19.5536
  0
LINE
  8
0
 10
26.9133
 20
19.5536
 11
29.1518
 21
16.0263
  0
LINE
  8
0
 10
29.1518
 20
16.0263
 11
30.9306
 21
12.2463
  0
LINE
  8
0
 10
30.9306
 20
12.2463
 11
32.2215
 21
8.27307
  0
LINE
  8
0
 10
32.2215
 20
8.27307
 11
33.0043
 21
4.16942
  0
LINE
  8
0
 10
33.0043
 20
4.16942
 11
33.2667
 21
0
  0
LINE
  8
0
 10
33.2667
 20
0
 11
33.0043
 21
-4.16942
  0
LINE
  8
0
 10
33.0043
 20
-4.16942
 11
32.2215
 21
-8.27307
  0
LINE
  8
0
 10
32.2215
 20
-8.27307
 11
30.9306
 21
-12.2463
  0
LINE
  8
0
 10
30.9306
 20
-12.2463
 11
29.1518
 21
-16.0263
  0
LINE
  8
0
 10
29.1518
 20
-16.0263
 11
26.9133
 21
-19.5536
  0
LINE
  8
0
 10
26.9133
 20
-19.5536
 11
24.2504
 21
-22.7726
  0
LINE
  8
0
 10
24.2504
 20
-22.7726
 11
21.205
 21
-25.6324
  0
LINE
  8
0
 10
21.205
 20
-25.6324
 11
17.8252
 21
-28.088
  0
LINE
  8
0
 10
17.8252
 20
-28.088
 11
14.1642
 21
-30.1006
  0
LINE
  8
0
 10
14.1642
 20
-30.1006
 11
10.28
 21
-31.6385
  0
LINE
  8
0
 10
10.28
 20
-31.6385
 11
6.23355
 21
-32.6774
  0
LINE
  8
0
 10
6.23355
 20
-32.6774
 11
2.08882
 21
-33.201
  0
LINE
  8
0
 10
2.08882
 20
-33.201
 11
-2.08882
 21
-33.201
  0
LINE
  8
0
 10
-2.08882
 20
-33.201
 11
-6.23355
 21
-32.6774
  0
LINE
  8
0
 10
-6.23355
 20
-32.6774
 11
-10.28
 21
-31.6385
  0
LINE
  8
0
 10
-10.28
 20
-31.6385
 11
-14.1642
 21
-30.1006
  0
LINE
  8
0
 10
-14.1642
 20
-30.1006
 11
-17.8252
 21
-28.088
  0
LINE
  8
0
 10
-17.8252
 20
-28.088
 11
-21.205
 21
-25.6324
  0
LINE
  8
0
 10
-21.205
 20
-25.6324
 11
-24.2504
 21
-22.7726
  0
LINE
  8
0
 10
-24.2504
 20
-22.7726
 11
-26.9133
 21
-19.5536
  0
LINE
  8
0
 10
-26.9133
 20
-19.5536
 11
-29.1518
 21
-16.0263
  0
LINE
  8
0
 10
-29.1518
 20
-16.0263
 11
-30.9306
 21
-12.2463
  0
LINE
  8
0
 10
-30.9306
 20
-12.2463
 11
-32.2215
 21
-8.27307
  0
LINE
  8
0
 10
-32.2215
 20
-8.27307
 11
-33.0043
 21
-4.16942
  0
LINE
  8
0
 10
-33.0043
 20
-4.16942
 11
-33.2667
 21
0
  0
LINE
  8
0
 10
-33.2667
 20
0
 11
-33.0043
 21
4.16942
  0
LINE
  8
0
 10
-33.0043
 20
4.16942
 11
-32.2215
 21
8.27307
  0
LINE
  8
0
 10
-32.2215
 20
8.27307
 11
-30.9306
 21
12.2463
  0
LINE
  8
0
 10
-30.9306
 20
12.2463
 11
-29.1518
 21
16.0263
  0
LINE
  8
0
 10
-29.1518
 20
16.0263
 11
-26.9133
 21
19.5536
  0
LINE
  8
0
 10
-26.9133
 20
19.5536
 11
-24.2504
 21
22.7726
  0
LINE
  8
0
 10
-24.2504
 20
22.7726
 11
-21.205
 21
25.6324
  0
LINE
  8
0
 10
-21.205
 20
25.6324
 11
-17.8252
 21
28.088
  0
LINE
  8
0
 10
-17.8252
 20
28.088
 11
-14.1642
 21
30.1006
  0
LINE
  8
0
 10
-14.1642
 20
30.1006
 11
-10.28
 21
31.6385
  0
LINE
  8
0
 10
-10.28
 20
31.6385
 11
-6.23355
 21
32.6774
  0
LINE
  8
0
 10
-6.23355
 20
32.6774
 11
-2.08882
 21
33.201
  0
LINE
  8
0
 10
-2.08882
 20
33.201
 11
2.08882
 21
33.201
  0
LINE
  8
0
 10
2.08882
 20
33.201
 11
6.23355
 21
32.6774
  0
LINE
  8
0
 10
6.23355
 20
32.6774
 11
10.28
 21
31.6385
  0
LINE
  8
0
 10
10.28
 20
31.6385
 11
14.1642
 21
30.1006
  0
ENDSEC
  0
SECTION
  2
OBJECTS
  0
DICTIONARY
  0
ENDSEC
  0
EOF
