<?xml version="1.0" standalone="no"?>
<!DOCTYPE svg PUBLIC "-//W3C//DTD SVG 1.1//EN" "http://www.w3.org/Graphics/SVG/1.1/DTD/svg11.dtd">
<svg width="70mm" height="70mm" viewBox="-35 -35 70 70" xmlns="http://www.w3.org/2000/svg" version="1.1">
<title>OpenSCAD Model</title>
<path d="
M 10.6096,-32.6529 L 6.43341,-33.7252 L 2.15581,-34.2656 L -2.15581,-34.2656 L -6.43341,-33.7252 L -10.6096,-32.6529
 L -14.6184,-31.0657 L -18.3967,-28.9886 L -21.8849,-26.4543 L -25.0279,-23.5028 L -27.7762,-20.1806 L -30.0865,-16.5402
 L -31.9223,-12.6389 L -33.2547,-8.53835 L -34.0626,-4.3031 L -34.3333,-0 L -34.0626,4.3031 L -33.2547,8.53835
 L -31.9223,12.6389 L -30.0865,16.5402 L -27.7762,20.1806 L -25.0279,23.5028 L -21.8849,26.4543 L -18.3967,28.9886
 L -14.6184,31.0657 L -10.6096,32.6529 L -6.43341,33.7252 L -2.15581,34.2656 L 2.15581,34.2656 L 6.43341,33.7252
 L 10.6096,32.6529 L 14.6184,31.0657 L 18.3967,28.9886 L 21.8849,26.4543 L 25.0279,23.5028 L 27.7762,20.1806
 L 30.0865,16.5402 L 31.9223,12.6389 L 33.2547,8.53835 L 34.0626,4.3031 L 34.3333,-0 L 34.0626,-4.3031
 L 33.2547,-8.53835 L 31.9223,-12.6389 L 30.0865,-16.5402 L 27.7762,-20.1806 L 25.0279,-23.5028 L 21.8849,-26.4543
 L 18.3967,-28.9886 L 14.6184,-31.0657 z
M 14.1642,-30.1006 L 17.8252,-28.088 L 21.205,-25.6324 L 24.2504,-22.7726 L 26.9133,-19.5536 L 29.1518,-16.0263
 L 30.9306,-12.2463 L 32.2215,-8.27307 L 33.0043,-4.16942 L 33.2667,-0 L 33.0043,4.16942 L 32.2215,8.27307
 L 30.9306,12.2463 L 29.1518,16.0263 L 26.9133,19.5536 L 24.2504,22.7726 L 21.205,25.6324 L 17.8252,28.088
 L 14.1642,30.1006 L 10.28,31.6385 L 6.23355,32.6774 L 2.08882,33.201 L -2.08882,33.201 L -6.23355,32.6774
 L -10.28,31.6385 L -14.1642,30.1006 L -17.8252,28.088 L -21.205,25.6324 L -24.2504,22.7726 L -26.9133,19.5536
 L -29.1518,16.0263 L -30.9306,12.2463 L -32.2215,8.27307 L -33.0043,4.16942 L -33.2667,-0 L -33.0043,-4.16942
 L -32.2215,-8.27307 L -30.9306,-12.2463 L -29.1518,-16.0263 L -26.9133,-19.5536 L -24.2504,-22.7726 L -21.205,-25.6324
 L -17.8252,-28.088 L -14.1642,-30.1006 L -10.28,-31.6385 L -6.23355,-32.6774 L -2.08882,-33.201 L 2.08882,-33.201
 L 6.23355,-32.6774 L 10.28,-31.6385 z
" stroke="black" fill="lightgray" stroke-width="0.5"/>
</svg>
