<?xml version="1.0" standalone="no"?>
<!DOCTYPE svg PUBLIC "-//W3C//DTD SVG 1.1//EN" "http://www.w3.org/Graphics/SVG/1.1/DTD/svg11.dtd">
<svg width="170mm" height="170mm" viewBox="-85 -85 170 170" xmlns="http://www.w3.org/2000/svg" version="1.1">
<title>OpenSCAD Model</title>
<path d="
M 61.3792,-57.6389 L 53.6711,-64.8772 L 45.1166,-71.0924 L 35.8506,-76.1864 L 26.0192,-80.0789 L 15.7775,-82.7086
 L 5.28696,-84.0338 L -5.28696,-84.0338 L -15.7775,-82.7086 L -26.0192,-80.0789 L -35.8506,-76.1864 L -45.1166,-71.0924
 L -53.6711,-64.8772 L -61.3792,-57.6389 L -68.1192,-49.4915 L -73.785,-40.5637 L -78.2872,-30.9961 L -81.5547,-20.9397
 L -83.5361,-10.5531 L -84.2,-0 L -83.5361,10.5531 L -81.5547,20.9397 L -78.2872,30.9961 L -73.785,40.5637
 L -68.1192,49.4915 L -61.3792,57.6389 L -53.6711,64.8772 L -45.1166,71.0924 L -35.8506,76.1864 L -26.0192,80.0789
 L -15.7775,82.7086 L -5.28696,84.0338 L 5.28696,84.0338 L 15.7775,82.7086 L 26.0192,80.0789 L 35.8506,76.1864
 L 45.1166,71.0924 L 53.6711,64.8772 L 61.3792,57.6389 L 68.1192,49.4915 L 73.785,40.5637 L 78.2872,30.9961
 L 81.5547,20.9397 L 83.5361,10.5531 L 84.2,-0 L 83.5361,-10.5531 L 81.5547,-20.9397 L 78.2872,-30.9961
 L 73.785,-40.5637 L 68.1192,-49.4915 z
M -82.4646,10.4177 L -83.12,-0 L -82.4646,-10.4177 L -80.5086,-20.6711 L -77.283,-30.5985 L -72.8386,-40.0434
 L -67.2455,-48.8567 L -60.5919,-56.8996 L -52.9827,-64.0451 L -44.5379,-70.1805 L -35.3908,-75.2092 L -25.6855,-79.0518
 L -15.5751,-81.6477 L -5.21915,-82.956 L 5.21915,-82.956 L 15.5751,-81.6477 L 25.6855,-79.0518 L 35.3908,-75.2092
 L 44.5379,-70.1805 L 52.9827,-64.0451 L 60.5919,-56.8996 L 67.2455,-48.8567 L 72.8386,-40.0434 L 77.283,-30.5985
 L 80.5086,-20.6711 L 82.4646,-10.4177 L 83.12,-0 L 82.4646,10.4177 L 80.5086,20.6711 L 77.283,30.5985
 L 72.8386,40.0434 L 67.2455,48.8567 L 60.5919,56.8996 L 52.9827,64.0451 L 44.5379,70.1805 L 35.3908,75.2092
 L 25.6855,79.0518 L 15.5751,81.6477 L 5.21915,82.956 L -5.21915,82.956 L -15.5751,81.6477 L -25.6855,79.0518
 L -35.3908,75.2092 L -44.5379,70.1805 L -52.9827,64.0451 L -60.5919,56.8996 L -67.2455,48.8567 L -72.8386,40.0434
 L -77.283,30.5985 L -80.5086,20.6711 z
" stroke="black" fill="lightgray" stroke-width="0.5"/>
</svg>
