  0
SECTION
  2
BLOCKS
  0
ENDSEC
  0
SECTION
  2
ENTITIES
  0
LINE
  8
0
 10
61.3792
 20
57.6389
 11
53.6711
 21
64.8772
  0
LINE
  8
0
 10
53.6711
 20
64.8772
 11
45.1166
 21
71.0924
  0
LINE
  8
0
 10
45.1166
 20
71.0924
 11
35.8506
 21
76.1864
  0
LINE
  8
0
 10
35.8506
 20
76.1864
 11
26.0192
 21
80.0789
  0
LINE
  8
0
 10
26.0192
 20
80.0789
 11
15.7775
 21
82.7086
  0
LINE
  8
0
 10
15.7775
 20
82.7086
 11
5.28696
 21
84.0338
  0
LINE
  8
0
 10
5.28696
 20
84.0338
 11
-5.28696
 21
84.0338
  0
LINE
  8
0
 10
-5.28696
 20
84.0338
 11
-15.7775
 21
82.7086
  0
LINE
  8
0
 10
-15.7775
 20
82.7086
 11
-26.0192
 21
80.0789
  0
LINE
  8
0
 10
-26.0192
 20
80.0789
 11
-35.8506
 21
76.1864
  0
LINE
  8
0
 10
-35.8506
 20
76.1864
 11
-45.1166
 21
71.0924
  0
LINE
  8
0
 10
-45.1166
 20
71.0924
 11
-53.6711
 21
64.8772
  0
LINE
  8
0
 10
-53.6711
 20
64.8772
 11
-61.3792
 21
57.6389
  0
LINE
  8
0
 10
-61.3792
 20
57.6389
 11
-68.1192
 21
49.4915
  0
LINE
  8
0
 10
-68.1192
 20
49.4915
 11
-73.785
 21
40.5637
  0
LINE
  8
0
 10
-73.785
 20
40.5637
 11
-78.2872
 21
30.9961
  0
LINE
  8
0
 10
-78.2872
 20
30.9961
 11
-81.5547
 21
20.9397
  0
LINE
  8
0
 10
-81.5547
 20
20.9397
 11
-83.5361
 21
10.5531
  0
LINE
  8
0
 10
-83.5361
 20
10.5531
 11
-84.2
 21
0
  0
LINE
  8
0
 10
-84.2
 20
0
 11
-83.5361
 21
-10.5531
  0
LINE
  8
0
 10
-83.5361
 20
-10.5531
 11
-81.5547
 21
-20.9397
  0
LINE
  8
0
 10
-81.5547
 20
-20.9397
 11
-78.2872
 21
-30.9961
  0
LINE
  8
0
 10
-78.2872
 20
-30.9961
 11
-73.785
 21
-40.5637
  0
LINE
  8
0
 10
-73.785
 20
-40.5637
 11
-68.1192
 21
-49.4915
  0
LINE
  8
0
 10
-68.1192
 20
-49.4915
 11
-61.3792
 21
-57.6389
  0
LINE
  8
0
 10
-61.3792
 20
-57.6389
 11
-53.6711
 21
-64.8772
  0
LINE
  8
0
 10
-53.6711
 20
-64.8772
 11
-45.1166
 21
-71.0924
  0
LINE
  8
0
 10
-45.1166
 20
-71.0924
 11
-35.8506
 21
-76.1864
  0
LINE
  8
0
 10
-35.8506
 20
-76.1864
 11
-26.0192
 21
-80.0789
  0
LINE
  8
0
 10
-26.0192
 20
-80.0789
 11
-15.7775
 21
-82.7086
  0
LINE
  8
0
 10
-15.7775
 20
-82.7086
 11
-5.28696
 21
-84.0338
  0
LINE
  8
0
 10
-5.28696
 20
-84.0338
 11
5.28696
 21
-84.0338
  0
LINE
  8
0
 10
5.28696
 20
-84.0338
 11
15.7775
 21
-82.7086
  0
LINE
  8
0
 10
15.7775
 20
-82.7086
 11
26.0192
 21
-80.0789
  0
LINE
  8
0
 10
26.0192
 20
-80.0789
 11
35.8506
 21
-76.1864
  0
LINE
  8
0
 10
35.8506
 20
-76.1864
 11
45.1166
 21
-71.0924
  0
LINE
  8
0
 10
45.1166
 20
-71.0924
 11
53.6711
 21
-64.8772
  0
LINE
  8
0
 10
53.6711
 20
-64.8772
 11
61.3792
 21
-57.6389
  0
LINE
  8
0
 10
61.3792
 20
-57.6389
 11
68.1192
 21
-49.4915
  0
LINE
  8
0
 10
68.1192
 20
-49.4915
 11
73.785
 21
-40.5637
  0
LINE
  8
0
 10
73.785
 20
-40.5637
 11
78.2872
 21
-30.9961
  0
LINE
  8
0
 10
78.2872
 20
-30.9961
 11
81.5547
 21
-20.9397
  0
LINE
  8
0
 10
81.5547
 20
-20.9397
 11
83.5361
 21
-10.5531
  0
LINE
  8
0
 10
83.5361
 20
-10.5531
 11
84.2
 21
0
  0
LINE
  8
0
 10
84.2
 20
0
 11
83.5361
 21
10.5531
  0
LINE
  8
0
 10
83.5361
 20
10.5531
 11
81.5547
 21
20.9397
  0
LINE
  8
0
 10
81.5547
 20
20.9397
 11
78.2872
 21
30.9961
  0
LINE
  8
0
 10
78.2872
 20
30.9961
 11
73.785
 21
40.5637
  0
LINE
  8
0
 10
73.785
 20
40.5637
 11
68.1192
 21
49.4915
  0
LINE
  8
0
 10
68.1192
 20
49.4915
 11
61.3792
 21
57.6389
  0
LINE
  8
0
 10
-82.4646
 20
-10.4177
 11
-83.12
 21
0
  0
LINE
  8
0
 10
-83.12
 20
0
 11
-82.4646
 21
10.4177
  0
LINE
  8
0
 10
-82.4646
 20
10.4177
 11
-80.5086
 21
20.6711
  0
LINE
  8
0
 10
-80.5086
 20
20.6711
 11
-77.283
 21
30.5985
  0
LINE
  8
0
 10
-77.283
 20
30.5985
 11
-72.8386
 21
40.0434
  0
LINE
  8
0
 10
-72.8386
 20
40.0434
 11
-67.2455
 21
48.8567
  0
LINE
  8
0
 10
-67.2455
 20
48.8567
 11
-60.5919
 21
56.8996
  0
LINE
  8
0
 10
-60.5919
 20
56.8996
 11
-52.9827
 21
64.0451
  0
LINE
  8
0
 10
-52.9827
 20
64.0451
 11
-44.5379
 21
70.1805
  0
LINE
  8
0
 10
-44.5379
 20
70.1805
 11
-35.3908
 21
75.2092
  0
LINE
  8
0
 10
-35.3908
 20
75.2092
 11
-25.6855
 21
79.0518
  0
LINE
  8
0
 10
-25.6855
 20
79.0518
 11
-15.5751
 21
81.6477
  0
LINE
  8
0
 10
-15.5751
 20
81.6477
 11
-5.21915
 21
82.956
  0
LINE
  8
0
 10
-5.21915
 20
82.956
 11
5.21915
 21
82.956
  0
LINE
  8
0
 10
5.21915
 20
82.956
 11
15.5751
 21
81.6477
  0
LINE
  8
0
 10
15.5751
 20
81.6477
 11
25.6855
 21
79.0518
  0
LINE
  8
0
 10
25.6855
 20
79.0518
 11
35.3908
 21
75.2092
  0
LINE
  8
0
 10
35.3908
 20
75.2092
 11
44.5379
 21
70.1805
  0
LINE
  8
0
 10
44.5379
 20
70.1805
 11
52.9827
 21
64.0451
  0
LINE
  8
0
 10
52.9827
 20
64.0451
 11
60.5919
 21
56.8996
  0
LINE
  8
0
 10
60.5919
 20
56.8996
 11
67.2455
 21
48.8567
  0
LINE
  8
0
 10
67.2455
 20
48.8567
 11
72.8386
 21
40.0434
  0
LINE
  8
0
 10
72.8386
 20
40.0434
 11
77.283
 21
30.5985
  0
LINE
  8
0
 10
77.283
 20
30.5985
 11
80.5086
 21
20.6711
  0
LINE
  8
0
 10
80.5086
 20
20.6711
 11
82.4646
 21
10.4177
  0
LINE
  8
0
 10
82.4646
 20
10.4177
 11
83.12
 21
0
  0
LINE
  8
0
 10
83.12
 20
0
 11
82.4646
 21
-10.4177
  0
LINE
  8
0
 10
82.4646
 20
-10.4177
 11
80.5086
 21
-20.6711
  0
LINE
  8
0
 10
80.5086
 20
-20.6711
 11
77.283
 21
-30.5985
  0
LINE
  8
0
 10
77.283
 20
-30.5985
 11
72.8386
 21
-40.0434
  0
LINE
  8
0
 10
72.8386
 20
-40.0434
 11
67.2455
 21
-48.8567
  0
LINE
  8
0
 10
67.2455
 20
-48.8567
 11
60.5919
 21
-56.8996
  0
LINE
  8
0
 10
60.5919
 20
-56.8996
 11
52.9827
 21
-64.0451
  0
LINE
  8
0
 10
52.9827
 20
-64.0451
 11
44.5379
 21
-70.1805
  0
LINE
  8
0
 10
44.5379
 20
-70.1805
 11
35.3908
 21
-75.2092
  0
LINE
  8
0
 10
35.3908
 20
-75.2092
 11
25.6855
 21
-79.0518
  0
LINE
  8
0
 10
25.6855
 20
-79.0518
 11
15.5751
 21
-81.6477
  0
LINE
  8
0
 10
15.5751
 20
-81.6477
 11
5.21915
 21
-82.956
  0
LINE
  8
0
 10
5.21915
 20
-82.956
 11
-5.21915
 21
-82.956
  0
LINE
  8
0
 10
-5.21915
 20
-82.956
 11
-15.5751
 21
-81.6477
  0
LINE
  8
0
 10
-15.5751
 20
-81.6477
 11
-25.6855
 21
-79.0518
  0
LINE
  8
0
 10
-25.6855
 20
-79.0518
 11
-35.3908
 21
-75.2092
  0
LINE
  8
0
 10
-35.3908
 20
-75.2092
 11
-44.5379
 21
-70.1805
  0
LINE
  8
0
 10
-44.5379
 20
-70.1805
 11
-52.9827
 21
-64.0451
  0
LINE
  8
0
 10
-52.9827
 20
-64.0451
 11
-60.5919
 21
-56.8996
  0
LINE
  8
0
 10
-60.5919
 20
-56.8996
 11
-67.2455
 21
-48.8567
  0
LINE
  8
0
 10
-67.2455
 20
-48.8567
 11
-72.8386
 21
-40.0434
  0
LINE
  8
0
 10
-72.8386
 20
-40.0434
 11
-77.283
 21
-30.5985
  0
LINE
  8
0
 10
-77.283
 20
-30.5985
 11
-80.5086
 21
-20.6711
  0
LINE
  8
0
 10
-80.5086
 20
-20.6711
 11
-82.4646
 21
-10.4177
  0
ENDSEC
  0
SECTION
  2
OBJECTS
  0
DICTIONARY
  0
ENDSEC
  0
EOF
